<svg width="96" height="20" viewBox="0 0 150 32" xmlns="http://www.w3.org/2000/svg">
    <path d="M136.796456 25.6277776v-8.8027165h9.65357v-4.4970069h-9.65357V5.350254h11.969822V.8517289H131.85401v29.2715374H150v-4.4954887h-13.203544zm-13.58757 5.6204996L123.246684.813773h-4.942447l.077108 19.2678985L96.683869 0l-.03931 30.1217481h4.942447l-.07862-18.5300371 21.7005 19.6565662zm-35.21701-1.1265291L87.9949.813773h-4.940935l-.004535 29.3079751h4.942446zm-28.2969802.0015182H76.876285v-4.4954887H64.6373423V.813773h-4.9424465v29.3094933zm-25.5604161 0H52.281982v-4.4954887H39.0769262v-8.8027165h9.6520582v-4.4970069h-9.6520582V5.350254h11.9698222V.8517289H34.1344797v29.2715374zM5.2508769 15.314419c0-5.584062 3.8614281-10.6625523 10.4246462-10.6625523 3.0117325 0 5.9841552 1.0855368 8.0312866 3.1017506l2.6246825-3.4509442C25.3668911 3.1397064 21.6596783.1548598 15.6755231.1548598 6.4090029.1548598 0 7.2100898 0 15.4298047c0 8.4140488 6.7567431 15.3918489 16.2152764 15.3918489 4.1698585 0 7.6457485-1.3557823 10.3097407-3.9155236l-2.2784542-3.2186545c-1.158126 1.1644849-4.1305487 2.6766452-7.7984518 2.6766452-6.6025279 0-11.1972342-4.9236305-11.1972342-11.0497017z" fill="#000206" fill-rule="evenodd"/>
</svg>
